<?xml version="1.0" encoding="utf-8"?>
<!-- Generator: Adobe Illustrator 24.1.1, SVG Export Plug-In . SVG Version: 6.00 Build 0)  -->
<svg version="1.1" id="Layer_1" xmlns="http://www.w3.org/2000/svg" xmlns:xlink="http://www.w3.org/1999/xlink" x="0px" y="0px"
	 viewBox="0 0 28 28" enable-background="new 0 0 28 28" xml:space="preserve">
<g>
	<path fill="#FF000D" d="M2.99,10.77c0.22-0.01,0.43,0.03,0.63,0.12c0.47,0.22,0.73,0.72,0.63,1.22c-0.08,0.48-0.3,0.92-0.65,1.26
		c-0.36,0.37-0.78,0.68-1.24,0.92c-0.2,0.12-0.43,0.18-0.67,0.19c-0.22,0.01-0.41-0.16-0.43-0.38c0,0,0,0,0,0
		c-0.01-0.12,0.01-0.25,0.06-0.36c0.09-0.24,0.26-0.45,0.48-0.58c0.11-0.07,0.24-0.08,0.36-0.04c0.13,0.03,0.21,0.17,0.18,0.3
		c-0.01,0.04-0.03,0.08-0.06,0.11c-0.09,0.11-0.2,0.2-0.3,0.3c-0.06,0.07-0.12,0.14-0.18,0.22c-0.03,0.04-0.03,0.09,0,0.13
		c0.04,0.03,0.09,0.04,0.13,0.02c0.1-0.03,0.19-0.07,0.28-0.12c0.54-0.29,0.99-0.73,1.28-1.27c0.08-0.14,0.12-0.3,0.11-0.46
		c-0.01-0.29-0.21-0.46-0.5-0.38c-0.16,0.04-0.31,0.11-0.45,0.18c-0.25,0.14-0.48,0.3-0.72,0.45c-0.18,0.12-0.38,0.21-0.59,0.27
		c-0.11,0.03-0.23,0.04-0.35,0.02c-0.22-0.03-0.37-0.22-0.36-0.44c0-0.14,0.04-0.27,0.11-0.39c0.12-0.23,0.29-0.43,0.5-0.59
		C1.61,11.2,2,10.99,2.43,10.85C2.61,10.79,2.8,10.77,2.99,10.77z"/>
	<path fill="#FF000D" d="M6.98,12.52c0.02-0.1,0.02-0.21,0-0.31C6.95,12.09,6.86,12,6.74,11.98c-0.19-0.04-0.39-0.02-0.57,0.05
		c-0.12,0.04-0.24,0.09-0.38,0.14c-0.07-0.13-0.13-0.28-0.2-0.43c0.02-0.02,0.04-0.03,0.06-0.05c0.36-0.2,0.76-0.29,1.17-0.27
		c0.29,0.01,0.55,0.14,0.74,0.36c0.09,0.11,0.15,0.25,0.17,0.4c0.02,0.12,0.03,0.23,0.03,0.35c0,0.48,0,0.95,0,1.43
		c0,0.07-0.03,0.14-0.08,0.18c-0.19,0.16-0.41,0.27-0.65,0.33c-0.19,0.05-0.39,0.07-0.59,0.07c-0.46,0-0.87-0.29-1.02-0.72
		c-0.18-0.48,0.06-1.02,0.54-1.2c0.02-0.01,0.03-0.01,0.05-0.02c0.16-0.05,0.33-0.08,0.49-0.08h0.41
		C6.94,12.53,6.96,12.52,6.98,12.52z M6.98,13.03c-0.14-0.01-0.29-0.01-0.43,0.01c-0.16,0.02-0.3,0.13-0.36,0.29
		c-0.05,0.14-0.05,0.29,0,0.43c0.04,0.12,0.13,0.21,0.25,0.24c0.15,0.04,0.31,0.03,0.45-0.03c0.06-0.01,0.1-0.08,0.09-0.14
		c0-0.23,0-0.46,0-0.69C6.99,13.11,6.98,13.08,6.98,13.03z"/>
	<path fill="#FF000D" d="M15.65,13.08h-1.62c0,0.06,0,0.13,0,0.19c0.01,0.11,0.03,0.22,0.05,0.32c0.05,0.26,0.29,0.44,0.56,0.42
		c0.26,0,0.51-0.07,0.73-0.2l0.1-0.05l0.21,0.42c-0.02,0.02-0.04,0.04-0.06,0.05c-0.36,0.24-0.78,0.34-1.21,0.3
		c-0.44-0.03-0.82-0.31-0.99-0.72c-0.13-0.29-0.18-0.6-0.16-0.92c0.01-0.29,0.09-0.58,0.22-0.84c0.15-0.31,0.43-0.52,0.76-0.59
		c0.25-0.05,0.51-0.03,0.76,0.06c0.23,0.09,0.41,0.27,0.5,0.5C15.62,12.36,15.67,12.72,15.65,13.08z M14.86,12.61
		c0.02-0.18-0.03-0.35-0.14-0.49c-0.12-0.13-0.32-0.14-0.46-0.04c-0.17,0.13-0.21,0.31-0.22,0.53
		C14.32,12.61,14.58,12.61,14.86,12.61z"/>
	<path fill="#FF000D" d="M11.7,10.77l0.77-0.12v0.82c0.17,0.03,0.33,0,0.49,0.02v0.53c-0.04,0-0.07,0.01-0.11,0.01
		c-0.1,0-0.21,0-0.31,0c-0.06,0-0.08,0.02-0.08,0.08c0,0.02,0,0.04,0,0.06v1.44c0,0.02,0,0.04,0,0.07
		c-0.01,0.19,0.13,0.35,0.32,0.36c0.01,0,0.01,0,0.02,0c0.05,0,0.09,0,0.16,0.01c0.01,0.15,0,0.3,0,0.46
		c-0.26,0.06-0.54,0.04-0.79-0.06c-0.16-0.06-0.29-0.19-0.37-0.34c-0.07-0.14-0.11-0.3-0.1-0.46L11.7,10.77L11.7,10.77z"/>
	<path fill="#FF000D" d="M17.36,14.04v0.44c-0.01,0.01-0.03,0.02-0.04,0.02c-0.24,0.05-0.49,0.03-0.72-0.06
		c-0.23-0.09-0.39-0.29-0.44-0.53c-0.03-0.13-0.04-0.26-0.04-0.39c0-0.88,0-1.76,0-2.65c0-0.03,0-0.06,0-0.1l0.75-0.13
		c0,0.05,0,0.1,0,0.14c0,0.94,0,1.89,0,2.83c0,0.05,0,0.1,0.01,0.15c0.02,0.11,0.1,0.2,0.21,0.22
		C17.19,14.01,17.27,14.02,17.36,14.04z"/>
	<path fill="#FF000D" d="M11.49,11.53l-0.21,0.46c-0.06-0.01-0.1-0.01-0.15-0.02c-0.2-0.03-0.4,0.01-0.57,0.11
		c-0.08,0.03-0.13,0.11-0.12,0.2c0,0.68,0,1.37,0,2.05v0.13c-0.25,0.03-0.5,0.03-0.75,0.01c0-0.04-0.01-0.07-0.01-0.11
		c0-0.75,0-1.49,0-2.24c0-0.07,0.03-0.14,0.08-0.19c0.33-0.32,0.78-0.5,1.24-0.49c0.13,0.01,0.27,0.03,0.4,0.06
		C11.44,11.51,11.46,11.52,11.49,11.53z"/>
	<path fill="#FF000D" d="M9.06,14.48H8.33c0-0.04-0.01-0.07-0.01-0.11v-2.65c0-0.11,0-0.11,0.11-0.13c0.16-0.02,0.32-0.05,0.48-0.08
		c0.05-0.01,0.09-0.01,0.14-0.02C9.07,11.58,9.08,14.34,9.06,14.48z"/>
	<path fill="#FF000D" d="M9.17,10.75c0,0.26-0.21,0.48-0.47,0.48c-0.26,0-0.48-0.21-0.48-0.47c0-0.27,0.22-0.48,0.48-0.48
		c0,0,0,0,0.01,0c0.25,0,0.46,0.2,0.46,0.46C9.17,10.73,9.17,10.74,9.17,10.75z"/>
	<path fill="#143E7B" d="M24.55,13.13c0.01-0.29,0.08-0.58,0.21-0.84c0.18-0.36,0.52-0.61,0.91-0.67c0.27-0.06,0.55-0.04,0.81,0.06
		c0.35,0.12,0.62,0.4,0.75,0.74c0.19,0.47,0.17,1-0.06,1.45c-0.23,0.48-0.64,0.71-1.16,0.73c-0.27,0.02-0.54-0.04-0.77-0.17
		c-0.34-0.2-0.57-0.54-0.64-0.92C24.57,13.38,24.57,13.25,24.55,13.13z M25.3,13.06c-0.01,0.16,0.01,0.32,0.07,0.47
		c0.14,0.38,0.43,0.47,0.76,0.42c0.19-0.04,0.35-0.18,0.41-0.36c0.07-0.19,0.1-0.39,0.07-0.59c-0.01-0.15-0.04-0.3-0.11-0.43
		c-0.11-0.23-0.36-0.37-0.61-0.34c-0.24,0.01-0.45,0.17-0.52,0.41C25.31,12.77,25.29,12.92,25.3,13.06L25.3,13.06z"/>
	<path fill="#143E7B" d="M24.18,12.48c-0.04-0.01-0.08-0.02-0.12-0.04c-0.29-0.18-0.63-0.25-0.97-0.2
		c-0.45,0.04-0.79,0.41-0.79,0.87c0,0.15,0.02,0.3,0.07,0.44c0.09,0.27,0.33,0.47,0.61,0.5c0.12,0.02,0.24,0.02,0.36,0.01
		c0.14-0.01,0.2-0.08,0.2-0.22c0.01-0.21,0-0.41-0.04-0.61c0-0.02,0-0.05,0-0.07c0.15,0,0.3-0.01,0.44,0
		c0.16,0.02,0.27,0.15,0.29,0.31c0,0.18,0,0.36-0.01,0.55c0,0.29-0.21,0.54-0.5,0.6c-0.49,0.15-1.02,0.09-1.46-0.17
		c-0.38-0.22-0.64-0.61-0.68-1.05c-0.06-0.4,0.04-0.8,0.27-1.13c0.24-0.33,0.6-0.55,1-0.62c0.21-0.05,0.43-0.06,0.64-0.03
		c0.16,0.01,0.32,0.07,0.45,0.17c0.15,0.1,0.24,0.28,0.23,0.46C24.18,12.32,24.18,12.39,24.18,12.48z"/>
	<path fill="#143E7B" d="M18.55,11.01v0.64h0.34h0.65c0.02,0.12,0.02,0.23,0,0.35c-0.03,0.14-0.14,0.24-0.28,0.26
		c-0.07,0.01-0.13,0.01-0.2,0.01c-0.14,0-0.28,0-0.42,0c-0.08,0-0.09,0.01-0.09,0.09c0,0.38,0,0.77,0,1.15
		c-0.01,0.2,0.13,0.38,0.33,0.41c0.19,0.03,0.38,0.01,0.56-0.05c0.03-0.01,0.05-0.02,0.08-0.03c0.11,0.25,0,0.55-0.25,0.66
		c-0.05,0.02-0.1,0.03-0.15,0.04c-0.22,0.04-0.44,0.02-0.65-0.04c-0.31-0.08-0.54-0.33-0.59-0.65c-0.03-0.13-0.04-0.26-0.04-0.39
		c0-0.56,0-1.12,0-1.68c0-0.11,0.01-0.23,0.04-0.34c0.05-0.13,0.13-0.25,0.24-0.34C18.24,11.01,18.4,10.97,18.55,11.01z"/>
	<path fill="#143E7B" d="M13.44,15.8c-0.03,0.1-0.07,0.21-0.1,0.31c-0.1,0.32-0.21,0.64-0.31,0.97c-0.02,0.05-0.04,0.08-0.1,0.08
		c-0.1,0-0.2,0-0.3,0c-0.05,0-0.09-0.03-0.09-0.07c-0.12-0.39-0.25-0.78-0.38-1.17c-0.01-0.04-0.02-0.07-0.04-0.11H12.1
		c-0.06,0.44-0.11,0.89-0.17,1.34c-0.13,0.01-0.26,0.02-0.39,0.01c0.01-0.24,0.06-0.47,0.09-0.7c0.03-0.23,0.06-0.47,0.1-0.71
		c0.03-0.24,0.07-0.46,0.1-0.71c0.14,0,0.27,0,0.4,0c0.05,0,0.05,0.04,0.06,0.08c0.08,0.24,0.16,0.47,0.23,0.71
		c0.07,0.22,0.14,0.44,0.21,0.66c0.02,0.07,0.04,0.13,0.06,0.2h0.03c0.06-0.18,0.12-0.36,0.18-0.55l0.18-0.54l0.19-0.55h0.43
		c0.1,0.7,0.19,1.4,0.29,2.11c-0.15,0.01-0.29,0.01-0.45,0c-0.06-0.45-0.12-0.9-0.17-1.35L13.44,15.8z"/>
	<path fill="#143E7B" d="M22.37,15.13c0.48,0.64,1.1,1.03,1.92,1.01c0.78,0.01,1.51-0.37,1.95-1.01c0.01,0.03,0.01,0.06,0.01,0.09
		c0,0.14,0,0.28-0.02,0.43c-0.05,0.27-0.19,0.51-0.4,0.69c-0.33,0.31-0.76,0.51-1.21,0.57c-0.75,0.11-1.5-0.17-1.99-0.74
		c-0.17-0.2-0.27-0.45-0.27-0.71c0-0.1,0-0.21,0-0.31L22.37,15.13z"/>
	<path fill="#143E7B" d="M20.08,11.72c0.12-0.01,0.24-0.01,0.36,0.01c0.18,0.04,0.31,0.18,0.33,0.36c0.01,0.07,0.01,0.13,0.01,0.2
		c0,0.42,0,0.84,0,1.26c0,0.06,0,0.12,0.01,0.17c0.01,0.12,0.11,0.22,0.23,0.23c0.08,0.01,0.16,0.01,0.24,0.02l0.08,0.01
		c0.02,0.12,0.01,0.25-0.03,0.37c-0.02,0.08-0.09,0.14-0.17,0.16c-0.31,0.09-0.83,0.02-1-0.41c-0.05-0.12-0.08-0.25-0.08-0.38
		c0-0.64,0-1.29,0-1.93C20.08,11.78,20.08,11.76,20.08,11.72z"/>
	<path fill="#143E7B" d="M19.92,17.88c0.01-0.06,0.01-0.11,0.02-0.16c0.01-0.05,0.02-0.1,0.03-0.15h0.16
		c0.14,0.01,0.27-0.08,0.32-0.21c0.02-0.04,0.03-0.09,0.05-0.13c0.03-0.06,0.03-0.14,0-0.2c-0.16-0.42-0.32-0.83-0.48-1.25
		c-0.02-0.05-0.04-0.1-0.06-0.17c0.14-0.01,0.27-0.01,0.41,0c0.02,0,0.05,0.05,0.06,0.08c0.09,0.27,0.18,0.53,0.28,0.8
		c0.01,0.04,0.03,0.07,0.04,0.11h0.02c0.01-0.04,0.03-0.07,0.04-0.11l0.24-0.79c0.03-0.1,0.03-0.1,0.14-0.1c0.11,0,0.2,0,0.31,0
		c-0.01,0.03-0.02,0.07-0.03,0.1c-0.21,0.56-0.41,1.11-0.62,1.67c-0.04,0.11-0.09,0.21-0.16,0.3c-0.14,0.2-0.36,0.24-0.59,0.23
		C20.05,17.9,19.99,17.89,19.92,17.88z"/>
	<path fill="#143E7B" d="M14.44,16.38c0-0.13,0.02-0.26,0.07-0.37c0.09-0.22,0.28-0.38,0.51-0.42c0.16-0.04,0.33-0.03,0.48,0.03
		c0.28,0.1,0.47,0.35,0.48,0.65c0.02,0.15,0,0.31-0.05,0.45c-0.11,0.32-0.43,0.52-0.77,0.48c-0.27,0-0.52-0.15-0.64-0.39
		C14.46,16.67,14.43,16.52,14.44,16.38z M15.57,16.43c0.01-0.14-0.02-0.27-0.08-0.4c-0.06-0.11-0.18-0.18-0.3-0.16
		c-0.13,0-0.23,0.09-0.27,0.21c-0.01,0.04-0.03,0.09-0.03,0.14c-0.03,0.16-0.01,0.32,0.05,0.47c0.05,0.12,0.17,0.2,0.29,0.19
		c0.13,0,0.25-0.08,0.28-0.2C15.54,16.59,15.55,16.51,15.57,16.43L15.57,16.43z"/>
	<path fill="#143E7B" d="M17.81,17.15h-0.26c-0.04,0-0.08,0-0.13-0.01c0-0.05-0.01-0.09-0.01-0.13c0-0.27,0-0.54,0-0.81
		c0-0.04,0-0.08-0.01-0.12c-0.01-0.11-0.1-0.18-0.21-0.17c-0.01,0-0.03,0-0.04,0.01c-0.1,0.02-0.19,0.08-0.25,0.16
		c-0.02,0.03-0.03,0.07-0.03,0.11c0,0.27,0,0.54,0,0.81c0,0.04,0,0.09,0,0.14c-0.14,0.01-0.27,0.02-0.41,0.01c0-0.52,0-1.02,0-1.54
		h0.39l0.03,0.16l0.1-0.07c0.15-0.12,0.36-0.16,0.55-0.11c0.16,0.04,0.28,0.17,0.29,0.34c0.01,0.05,0.01,0.11,0.01,0.16
		c0,0.32,0,0.64,0,0.97C17.82,17.07,17.81,17.1,17.81,17.15z"/>
	<path fill="#143E7B" d="M19.67,16.46h-0.94c-0.03,0.15,0.04,0.31,0.19,0.38c0.12,0.05,0.26,0.06,0.39,0.01
		c0.07-0.02,0.13-0.05,0.2-0.07l0.12,0.25c-0.02,0.02-0.04,0.03-0.06,0.05c-0.25,0.12-0.53,0.15-0.8,0.07
		c-0.22-0.06-0.39-0.22-0.46-0.44c-0.08-0.21-0.08-0.44-0.01-0.66c0.12-0.35,0.48-0.55,0.84-0.48c0.29,0.03,0.5,0.27,0.52,0.56
		C19.67,16.24,19.68,16.35,19.67,16.46z M19.28,16.18c0.01-0.11-0.04-0.22-0.13-0.28c-0.09-0.06-0.21-0.06-0.3,0
		c-0.09,0.06-0.15,0.17-0.15,0.28C18.9,16.19,19.09,16.19,19.28,16.18L19.28,16.18z"/>
	<path fill="#143E7B" d="M27.25,11.24c-0.31-0.38-0.78-0.6-1.27-0.58c-0.49-0.01-0.95,0.21-1.26,0.59c-0.03-0.1-0.03-0.21-0.02-0.31
		c0.02-0.18,0.12-0.34,0.26-0.46c0.6-0.5,1.48-0.5,2.07,0.02c0.17,0.13,0.26,0.34,0.24,0.55c0,0.07,0,0.13,0,0.19L27.25,11.24z"/>
	<path fill="#143E7B" d="M20.84,11.02c-0.01,0.23-0.21,0.4-0.43,0.39c-0.21-0.01-0.38-0.18-0.39-0.39
		c-0.01-0.23,0.16-0.42,0.39-0.43c0.23-0.01,0.42,0.16,0.43,0.39C20.84,10.99,20.84,11.01,20.84,11.02z"/>
</g>
</svg>
