<svg width="42" height="10" viewBox="0 0 42 10" fill="none" xmlns="http://www.w3.org/2000/svg">
<path d="M19.8158 0.48584L17.2012 6.28061L14.5989 0.48584H11.2641V8.80863L7.54819 0.48584H4.73433L0.939209 9.12417H3.1851L4.0154 7.19629H8.26217L9.10608 9.12417H13.3937V2.70822L16.2385 9.12417H18.1726L21.0817 2.81959V9.12417H23.2125V0.48584H19.8158ZM4.81848 5.33028L6.08805 2.31101L7.40713 5.33028H4.81848Z" fill="#1976D2"/>
<path d="M37.2046 4.70935L41.0616 0.508357H38.3183L35.8509 3.1861L33.4639 0.486084H24.9753V9.12565H33.1855L35.7742 6.266L38.2985 9.14792H41.0332L37.2046 4.70935ZM32.0632 7.31161H27.1V5.60276H31.8491V3.96567H27.1V2.34714L32.3391 2.36199L34.4341 4.70935L32.0632 7.31161Z" fill="#1976D2"/>
</svg>
