<?xml version="1.0" encoding="utf-8"?>
<!-- Generator: Adobe Illustrator 24.1.1, SVG Export Plug-In . SVG Version: 6.00 Build 0)  -->
<svg version="1.1" id="Layer_1" xmlns="http://www.w3.org/2000/svg" xmlns:xlink="http://www.w3.org/1999/xlink" x="0px" y="0px"
	 viewBox="0 0 28 29" enable-background="new 0 0 28 29" xml:space="preserve">
<path fill="none" stroke="#000000" stroke-linecap="round" stroke-linejoin="round" d="M14,5.6c-1.86,0-3.64,0.74-4.95,2.05
	C7.74,8.96,7,10.74,7,12.6v5c0,0.8-0.32,1.56-0.88,2.12C5.56,20.28,4.8,20.6,4,20.6h20c-0.8,0-1.56-0.32-2.12-0.88
	C21.32,19.16,21,18.4,21,17.6v-5c0-1.86-0.74-3.64-2.05-4.95C17.64,6.34,15.86,5.6,14,5.6z M14,5.6v-3 M15.73,24.6
	c-0.18,0.3-0.43,0.55-0.73,0.73c-0.3,0.17-0.65,0.27-1,0.27s-0.69-0.09-1-0.27c-0.3-0.17-0.56-0.43-0.73-0.73"/>
</svg>
