<svg width="37" height="23" viewBox="0 0 37 23" fill="none" xmlns="http://www.w3.org/2000/svg">
<path d="M25.2071 0.986084H11.6687C5.71174 0.986084 0.837891 5.85994 0.837891 11.8169C0.837891 17.7738 5.71174 22.6476 11.6687 22.6476H25.2071C31.1641 22.6476 36.0379 17.7738 36.0379 11.8169C36.0379 5.85994 31.1641 0.986084 25.2071 0.986084Z" fill="#1565C0"/>
<path d="M11.6683 3.6936C7.20055 3.6936 3.54517 7.34899 3.54517 11.8167C3.54517 16.2844 7.20055 19.9398 11.6683 19.9398C16.1359 19.9398 19.7913 16.2844 19.7913 11.8167C19.7913 7.34899 16.1359 3.6936 11.6683 3.6936ZM6.25286 11.8167C6.25286 9.24438 8.01286 7.21361 10.3144 6.53668V16.9613C8.01286 16.4198 6.25286 14.389 6.25286 11.8167ZM13.0221 17.0967V6.67207C15.3236 7.21361 17.0836 9.37976 17.0836 11.9521C17.0836 14.389 15.3236 16.4198 13.0221 17.0967Z" fill="white"/>
</svg>
