<svg width="28" height="29" viewBox="0 0 28 29" fill="none" xmlns="http://www.w3.org/2000/svg">
<path d="M16.12 16.1901C15.8454 16.4848 15.5141 16.7212 15.1462 16.8852C14.7782 17.0492 14.3809 17.1373 13.9781 17.1444C13.5753 17.1515 13.1752 17.0774 12.8016 16.9266C12.4281 16.7757 12.0887 16.5511 11.8038 16.2662C11.519 15.9813 11.2944 15.642 11.1435 15.2685C10.9926 14.8949 10.9185 14.4948 10.9256 14.092C10.9327 13.6892 11.0209 13.2919 11.1849 12.9239C11.3488 12.5559 11.5853 12.2247 11.88 11.9501M3 3.07007L25 25.0701M19.94 20.0101C18.2306 21.3131 16.1491 22.0349 14 22.0701C7 22.0701 3 14.0701 3 14.0701C4.24389 11.752 5.96914 9.72668 8.06 8.13007L19.94 20.0101ZM11.9 6.31007C12.5883 6.14895 13.2931 6.06841 14 6.07007C21 6.07007 25 14.0701 25 14.0701C24.393 15.2057 23.6691 16.2748 22.84 17.2601L11.9 6.31007Z" stroke="white" stroke-linecap="round" stroke-linejoin="round"/>
</svg>
