<svg width="28" height="28" viewBox="0 0 28 28" fill="none" xmlns="http://www.w3.org/2000/svg">
<path d="M5.55736 9.88L8.38361 12.1113M5.5311 19.0675L8.3661 16.8363M18.2361 19.89L21.0624 22.1213M24.5624 14.5C24.5604 15.0872 24.5048 15.673 24.3961 16.25C24.0119 18.4215 22.9231 20.4061 21.2981 21.8969C19.6731 23.3877 17.6023 24.3018 15.4058 24.4979C13.2093 24.694 11.0093 24.1611 9.14593 22.9818C7.28254 21.8024 5.85947 20.0421 5.09666 17.973C4.33385 15.9038 4.27376 13.6411 4.9257 11.5344C5.57763 9.42769 6.90529 7.59437 8.70346 6.31777C10.5016 5.04116 12.6702 4.39235 14.8741 4.47161C17.0779 4.55086 19.1943 5.35377 20.8961 6.75625L18.4286 9.25C17.2987 8.39296 15.918 7.93172 14.4999 7.9375C13.2769 7.93613 12.078 8.27649 11.0382 8.92019C9.9984 9.5639 9.15917 10.4853 8.61513 11.5806C8.0711 12.6758 7.84393 13.9013 7.95923 15.1187C8.07453 16.3362 8.52771 17.4972 9.26768 18.4709C10.0076 19.4445 11.0049 20.192 12.1471 20.6291C13.2892 21.0661 14.5308 21.1754 15.7317 20.9444C16.9326 20.7135 18.0451 20.1516 18.9437 19.3222C19.8423 18.4927 20.4912 17.4286 20.8174 16.25H14.9374V12.75H24.3961C24.5003 13.3277 24.556 13.913 24.5624 14.5Z" stroke="white" stroke-linecap="round" stroke-linejoin="round"/>
</svg>
