<svg width="28" height="29" viewBox="0 0 28 29" fill="none" xmlns="http://www.w3.org/2000/svg">
<path d="M22.4578 7.52663C21.9691 7.02214 21.3889 6.62193 20.7503 6.34889C20.1117 6.07584 19.4272 5.9353 18.7359 5.9353C18.0446 5.9353 17.3601 6.07584 16.7215 6.34889C16.0829 6.62193 15.5026 7.02214 15.0139 7.52663L13.9997 8.57316L12.9855 7.52663C11.9984 6.50806 10.6596 5.93583 9.26361 5.93583C7.86761 5.93583 6.52879 6.50806 5.54168 7.52663C4.55456 8.54521 4 9.92669 4 11.3672C4 12.8077 4.55456 14.1891 5.54168 15.2077L6.55588 16.2542L13.9997 23.9353L21.4436 16.2542L22.4578 15.2077C22.9467 14.7034 23.3346 14.1047 23.5992 13.4458C23.8638 12.7868 24 12.0805 24 11.3672C24 10.6539 23.8638 9.94756 23.5992 9.28859C23.3346 8.62961 22.9467 8.03089 22.4578 7.52663V7.52663Z" stroke="white" stroke-linecap="round" stroke-linejoin="round"/>
</svg>
