<svg width="160" height="161" viewBox="0 0 160 161" fill="none" xmlns="http://www.w3.org/2000/svg">
<path d="M97.1429 51.5271H114.286C118.038 51.5271 121.753 52.2661 125.22 53.702C128.686 55.1378 131.836 57.2424 134.489 59.8955C137.142 62.5486 139.246 65.6983 140.682 69.1647C142.118 72.6312 142.857 76.3465 142.857 80.0985C142.857 83.8506 142.118 87.5659 140.682 91.0323C139.246 94.4988 137.142 97.6485 134.489 100.302C131.836 102.955 128.686 105.059 125.22 106.495C121.753 107.931 118.038 108.67 114.286 108.67H97.1429M62.8571 108.67H45.7143C41.9622 108.67 38.2469 107.931 34.7805 106.495C31.314 105.059 28.1643 102.955 25.5112 100.302C20.153 94.9434 17.1429 87.6761 17.1429 80.0985C17.1429 72.5209 20.153 65.2537 25.5112 59.8955C30.8694 54.5373 38.1367 51.5271 45.7143 51.5271H62.8571M57.1429 80.0985H102.857" stroke="#999999" stroke-width="2" stroke-linecap="round" stroke-linejoin="round"/>
</svg>
