<svg width="28" height="29" viewBox="0 0 28 29" fill="none" xmlns="http://www.w3.org/2000/svg">
<path d="M9 13.6003V9.60034C9 8.27426 9.52678 7.00249 10.4645 6.06481C11.4021 5.12713 12.6739 4.60034 14 4.60034C15.3261 4.60034 16.5979 5.12713 17.5355 6.06481C18.4732 7.00249 19 8.27426 19 9.60034V13.6003M7 13.6003H21C22.1046 13.6003 23 14.4958 23 15.6003V22.6003C23 23.7049 22.1046 24.6003 21 24.6003H7C5.89543 24.6003 5 23.7049 5 22.6003V15.6003C5 14.4958 5.89543 13.6003 7 13.6003Z" stroke="white" stroke-linecap="round" stroke-linejoin="round"/>
</svg>
