<svg width="28" height="29" viewBox="0 0 28 29" fill="none" xmlns="http://www.w3.org/2000/svg">
<path d="M23 12.6003C23 19.6003 14 25.6003 14 25.6003C14 25.6003 5 19.6003 5 12.6003C5 10.2134 5.94821 7.92421 7.63604 6.23638C9.32387 4.54855 11.6131 3.60034 14 3.60034C16.3869 3.60034 18.6761 4.54855 20.364 6.23638C22.0518 7.92421 23 10.2134 23 12.6003Z" stroke="white" stroke-linecap="round" stroke-linejoin="round"/>
<path d="M14 15.6003C15.6569 15.6003 17 14.2572 17 12.6003C17 10.9435 15.6569 9.60034 14 9.60034C12.3431 9.60034 11 10.9435 11 12.6003C11 14.2572 12.3431 15.6003 14 15.6003Z" stroke="white" stroke-linecap="round" stroke-linejoin="round"/>
</svg>
