<svg width="28" height="28" viewBox="0 0 28 28" fill="none" xmlns="http://www.w3.org/2000/svg">
<path d="M24 5.73735C24 6.79667 20.9492 7.64413 17.178 7.64413C13.4068 7.64413 10.356 6.79667 10.356 5.73735C10.356 4.67802 13.4068 3.83057 17.178 3.83057C20.9492 3.83057 24 4.67802 24 5.73735Z" stroke="#00C48C" stroke-miterlimit="10" stroke-linecap="round"/>
<path d="M24.0001 9.12695C24.0001 10.1863 20.9492 11.0337 17.178 11.0337C16.4577 11.0337 15.7797 10.9914 15.1018 10.949C15.017 10.949 10.9492 10.4405 10.9069 10.3981" stroke="#00C48C" stroke-miterlimit="10" stroke-linecap="round"/>
<path d="M24 12.814C24 13.8309 21.1187 14.6784 17.517 14.7207" stroke="#00C48C" stroke-miterlimit="10" stroke-linecap="round"/>
<path d="M24 16.5C24 17.5169 21.161 18.322 17.6017 18.4068" stroke="#00C48C" stroke-miterlimit="10" stroke-linecap="round"/>
<path d="M10.356 6.33057V10.6526" stroke="#00C48C" stroke-miterlimit="10" stroke-linecap="round"/>
<path d="M24 6.33057V16.4577" stroke="#00C48C" stroke-miterlimit="10" stroke-linecap="round"/>
<path d="M17.4322 17.4326C17.4322 21.1614 14.4237 24.1699 10.6949 24.1699C7.00847 24.1699 4 21.1614 4 17.4326C4 13.7038 7.00847 10.6953 10.7373 10.6953C14.4237 10.7377 17.4322 13.7462 17.4322 17.4326Z" stroke="#00C48C" stroke-miterlimit="10" stroke-linecap="round"/>
<path d="M12.0235 18.1283C12.1201 18.2469 12.1904 18.3811 12.2309 18.5466C12.1846 18.3954 12.1146 18.2562 12.0235 18.1283Z" stroke="#00C48C"/>
</svg>
