<svg width="19" height="17" viewBox="0 0 19 17" fill="none" xmlns="http://www.w3.org/2000/svg">
<path d="M9.27261 8.78421C9.6384 8.78421 9.93494 8.52838 9.93494 8.21279C9.93494 7.89719 9.6384 7.64136 9.27261 7.64136C8.90682 7.64136 8.61028 7.89719 8.61028 8.21279C8.61028 8.52838 8.90682 8.78421 9.27261 8.78421Z" stroke="#0084F4" stroke-linecap="round" stroke-linejoin="round"/>
<path d="M13.9089 8.78421C14.2747 8.78421 14.5712 8.52838 14.5712 8.21279C14.5712 7.89719 14.2747 7.64136 13.9089 7.64136C13.5431 7.64136 13.2466 7.89719 13.2466 8.21279C13.2466 8.52838 13.5431 8.78421 13.9089 8.78421Z" stroke="#0084F4" stroke-linecap="round" stroke-linejoin="round"/>
<path d="M4.63633 8.78421C5.00212 8.78421 5.29865 8.52838 5.29865 8.21279C5.29865 7.89719 5.00212 7.64136 4.63633 7.64136C4.27053 7.64136 3.974 7.89719 3.974 8.21279C3.974 8.52838 4.27053 8.78421 4.63633 8.78421Z" stroke="#0084F4" stroke-linecap="round" stroke-linejoin="round"/>
</svg>
