<?xml version="1.0" encoding="utf-8"?>
<!-- Generator: Adobe Illustrator 24.1.1, SVG Export Plug-In . SVG Version: 6.00 Build 0)  -->
<svg version="1.1" id="Layer_1" xmlns="http://www.w3.org/2000/svg" xmlns:xlink="http://www.w3.org/1999/xlink" x="0px" y="0px"
	 viewBox="0 0 28 28" enable-background="new 0 0 28 28" xml:space="preserve">
<path fill="#00678F" d="M21.01,23.4c-0.2,0-0.31-0.15-0.31-0.39c0-0.24,0.1-0.35,0.29-0.35c0.18,0,0.31,0.15,0.31,0.4
	C21.3,23.26,21.2,23.4,21.01,23.4 M20.99,23.76c0.42,0.03,0.79-0.29,0.82-0.72c0-0.01,0-0.02,0-0.04c-0.01-0.41-0.36-0.73-0.77-0.72
	c-0.01,0-0.02,0-0.02,0c-0.43-0.03-0.79,0.3-0.82,0.72c0,0.01,0,0.02,0,0.04c0.01,0.41,0.36,0.73,0.77,0.71
	C20.97,23.77,20.98,23.76,20.99,23.76 M19.49,21.86l-0.48,0.72l-0.53-0.72h-0.47v1.84h0.47v-1.02l0.37,0.5h0.26l0.34-0.5v1.02h0.5
	v-1.84H19.49z M16.98,23.4c-0.2,0-0.32-0.15-0.32-0.39s0.1-0.35,0.29-0.35c0.18,0,0.31,0.15,0.31,0.4
	C17.27,23.26,17.16,23.4,16.98,23.4 M16.95,23.76c0.42,0.03,0.79-0.29,0.82-0.72c0-0.01,0-0.02,0-0.04
	c-0.01-0.41-0.36-0.73-0.77-0.72c-0.01,0-0.01,0-0.02,0c-0.43-0.03-0.79,0.3-0.82,0.72c0,0.01,0,0.02,0,0.04
	c0.02,0.41,0.36,0.73,0.77,0.71C16.94,23.76,16.95,23.76,16.95,23.76 M15.46,21.86l-0.48,0.72l-0.53-0.72h-0.47v1.84h0.46v-1.02
	l0.37,0.5h0.26l0.34-0.5v1.02h0.5v-1.84H15.46z M12.43,21.86v1.02l-0.82-1.02h-0.46v1.84h0.46v-1.05l0.86,1.05h0.42v-1.84H12.43z
	 M9.77,22.27v1.43h0.52v-1.43h0.6v-0.41H9.17v0.41H9.77z M8.45,21.86l-0.48,0.72l-0.53-0.72H6.97v1.84h0.46v-1.02l0.37,0.5h0.26
	l0.34-0.5v1.02h0.5v-1.84H8.45z"/>
<path fill="#FFFFFF" d="M27.75,15.54V6.5c0-0.39-0.31-0.7-0.7-0.7H0.9v14.04h22.54c0.19,0,0.36-0.07,0.5-0.2l3.58-3.6h0.01
	C27.67,15.9,27.74,15.73,27.75,15.54"/>
<polygon fill="#FFCB05" points="27.05,6.5 14.94,6.5 14.94,19.13 23.45,19.13 27.05,15.54 "/>
<path fill="#FFFFFF" d="M24,6.5h-2.14c-0.4-0.82-1.02-1.52-1.78-2.02c-0.04-0.03-0.1-0.05-0.15-0.05c-0.1-0.01-0.2,0.03-0.27,0.11
	l-0.73,0.82c-0.41-0.18-0.83-0.31-1.27-0.4c0,0-0.18-0.05-0.25,0.07c-0.2,0.35-1.97,3.6-2.05,3.71c-0.11,0.22-0.26,0.49,0,0.56
	c1.27,0.24,2.51,0.61,3.7,1.13c0.01,0.13,0.03,0.26,0.04,0.41l-1.1,6.09c-0.04,0.26,0.12,0.51,0.37,0.58c0,0-0.14-0.07,3.31,1.01
	c0.14,0.04,0.41,0.06,0.47-0.22c0-0.05,2.13-11.23,2.13-11.23c0.11-0.46-0.12-0.56-0.3-0.56"/>
<rect x="1.6" y="6.5" fill="#FFCB05" width="12.63" height="12.63"/>
<path fill="#00678F" d="M7.92,15.27c3.3,0,5.97-1.1,5.97-2.46s-2.66-2.46-5.97-2.46s-5.97,1.1-5.97,2.46S4.62,15.27,7.92,15.27"/>
<polygon fill="#FFCB05" points="9.41,12.21 9.57,11.59 7.54,11.59 7.38,12.21 8.05,12.21 7.72,13.52 8.42,13.52 8.75,12.21 "/>
<polygon fill="#FFFFFF" points="7.36,11.59 6.34,11.59 5.7,13.02 5.7,11.59 4.71,11.59 4.1,14.05 4.77,14.05 5.17,12.46 5.17,14.05 
	5.7,14.05 6.47,12.46 6.1,14.05 6.74,14.05 "/>
<polygon fill="#FFFFFF" points="11.75,11.59 11.1,11.59 10.76,12.9 10.45,11.59 9.75,11.59 9.13,14.05 9.78,14.05 10.12,12.71 
	10.45,14.05 11.13,14.05 "/>
<polygon fill="#FF0000" points="7.67,13.7 7.59,14.05 8.29,14.05 8.38,13.7 "/>
<path fill="#00678F" d="M19.88,4.73l-0.66,0.74c0.92,0.46,1.69,1.17,2.23,2.05c0.14,0.23,0.27,0.46,0.38,0.7
	c0.2,0.4,0.36,0.82,0.48,1.24c-0.02-0.37-0.06-0.73-0.12-1.09c-0.3-1.64-1.05-2.87-2.24-3.65c-0.01,0-0.02,0-0.03,0
	c-0.01,0-0.03,0.01-0.04,0.02"/>
<path d="M22.32,7.73c0.1,0.3,0.4,1.72,0.5,5.01c0.28-1.51,1.02-5.39,1.02-5.39c0.09-0.4-0.11-0.48-0.26-0.49l-1.56-0.03
	c0.12,0.29,0.22,0.59,0.3,0.89"/>
<path fill="#FF0000" d="M19.35,12.77c0,0.03,0.01,0.05,0.04,0.06c0.6,0.15,2.41,0.61,3.01,0.76h0.01c0.01,0,0.02,0,0.03-0.01
	c0.01-0.01,0.02-0.02,0.02-0.04c0,0,0-0.01,0-0.01c-0.24-1.32-1.63-2.3-3.12-2.99C19.45,11.27,19.45,12.02,19.35,12.77"/>
<path d="M25.08,6.94l-0.5-0.5C24.43,6.29,24.22,6.2,24,6.2h-2.3c0.06,0.1,0.11,0.2,0.16,0.3H24c0.17,0,0.41,0.1,0.3,0.56
	c0,0-2.12,11.18-2.13,11.23c-0.05,0.28-0.33,0.26-0.47,0.22c-3.45-1.08-3.3-1.01-3.31-1.01c-0.25-0.07-0.41-0.32-0.37-0.58l1.1-6.09
	c0-0.15-0.02-0.28-0.04-0.41c-0.06-0.03-0.11-0.05-0.17-0.07l-1.18,6.52c-0.06,0.41,0.18,0.79,0.58,0.91l3.55,1.08
	c0.07,0.02,0.15,0.03,0.23,0.03c0.11,0,0.22-0.02,0.32-0.07l0.64-0.27c0.26-0.11,0.44-0.34,0.49-0.61l1.76-10.3
	C25.35,7.4,25.26,7.13,25.08,6.94"/>
<path d="M20.85,14.59c-0.02,0.12,0.06,0.23,0.18,0.26l1.01,0.26c0.11,0.03,0.22-0.03,0.26-0.14c0,0,0-0.01,0-0.01l0.08-0.44
	c0.02-0.12-0.06-0.24-0.18-0.26L21.19,14c-0.11-0.03-0.22,0.03-0.25,0.14c0,0,0,0.01,0,0.01L20.85,14.59z"/>
<path d="M18.89,14.05c-0.02,0.11,0.05,0.22,0.17,0.25l0.95,0.25c0.11,0.03,0.22-0.04,0.25-0.15l0.08-0.43
	c0.02-0.12-0.06-0.23-0.17-0.25l-0.95-0.23c-0.11-0.02-0.21,0.04-0.24,0.15L18.89,14.05z"/>
<path d="M20.59,15.8c-0.02,0.12,0.06,0.23,0.17,0.26l1,0.28c0.11,0.03,0.22-0.03,0.26-0.14c0,0,0-0.01,0-0.01l0.08-0.44
	c0.02-0.12-0.06-0.24-0.18-0.27l-1-0.27c-0.11-0.03-0.22,0.04-0.25,0.14c0,0,0,0,0,0L20.59,15.8z"/>
<path d="M18.64,15.23c-0.02,0.11,0.05,0.22,0.16,0.25l0.95,0.26c0.1,0.03,0.21-0.02,0.24-0.12c0-0.01,0-0.01,0.01-0.02l0.08-0.43
	c0.02-0.12-0.06-0.23-0.17-0.26l-0.95-0.25c-0.1-0.03-0.21,0.03-0.24,0.13c0,0.01,0,0.01,0,0.02L18.64,15.23z"/>
<path d="M20.34,17.01c-0.02,0.12,0.06,0.23,0.17,0.27l1,0.3c0.11,0.03,0.22-0.03,0.26-0.13c0,0,0-0.01,0-0.01l0.08-0.45
	c0.01-0.12-0.06-0.24-0.18-0.27l-1-0.28c-0.1-0.03-0.21,0.02-0.24,0.12c0,0.01-0.01,0.02-0.01,0.03L20.34,17.01z"/>
<path d="M18.4,16.41c-0.02,0.12,0.05,0.23,0.16,0.26l0.95,0.28c0.1,0.03,0.21-0.02,0.24-0.12c0-0.01,0.01-0.02,0.01-0.03l0.08-0.43
	c0.02-0.12-0.05-0.23-0.17-0.26l-0.95-0.27c-0.1-0.03-0.2,0.03-0.23,0.13c0,0.01,0,0.01,0,0.02L18.4,16.41z"/>
<path fill="#00678F" d="M17.6,5.24l-2.08,3.73c-0.01,0.01-0.01,0.03,0,0.05c0.01,0.02,0.02,0.03,0.04,0.03
	c0.89,0.12,5.86,1.3,6.88,3.66c0,0,0.1,0.2,0.1,0.24v-0.26c0-0.03-0.07-2.58-0.96-4.36c-0.11-0.23-0.23-0.46-0.37-0.67
	c-0.78-1.28-2.07-2.16-3.55-2.43h-0.01C17.64,5.21,17.62,5.22,17.6,5.24"/>
<path fill="#FFFFFF" d="M18.97,10.04c1.16,0,2.11-0.94,2.11-2.11s-0.94-2.11-2.11-2.11c-1.16,0-2.11,0.94-2.11,2.11
	C16.86,9.1,17.81,10.04,18.97,10.04C18.97,10.04,18.97,10.04,18.97,10.04"/>
<path fill="#00678F" d="M20.71,7.94c0,0.96-0.78,1.74-1.73,1.74c-0.96,0-1.74-0.78-1.74-1.73c0-0.96,0.78-1.74,1.73-1.74
	c0,0,0,0,0,0C19.93,6.21,20.71,6.99,20.71,7.94 M20.91,7.94c0-1.08-0.87-1.95-1.95-1.95c-1.08,0-1.95,0.87-1.95,1.95
	s0.87,1.95,1.95,1.95c0,0,0,0,0,0C20.04,9.89,20.91,9.02,20.91,7.94C20.91,7.95,20.91,7.94,20.91,7.94"/>
</svg>
