<svg width="28" height="29" viewBox="0 0 28 29" fill="none" xmlns="http://www.w3.org/2000/svg">
<path d="M4.32005 8.06176L14 12.9018M14 12.9018L23.68 8.06176M14 12.9018L14 24.6618M9.00005 5.40176L19 10.4018M14.89 3.35176L22.89 7.35176C23.2233 7.51734 23.5037 7.77259 23.6998 8.08881C23.8959 8.40503 23.9999 8.76968 24 9.14176V18.6718C23.9999 19.0438 23.8959 19.4085 23.6998 19.7247C23.5037 20.0409 23.2233 20.2962 22.89 20.4618L14.89 24.4618C14.6122 24.6008 14.3058 24.6732 13.995 24.6732C13.6843 24.6732 13.3779 24.6008 13.1 24.4618L5.10005 20.4618C4.76718 20.294 4.4878 20.0366 4.29344 19.7186C4.09907 19.4005 3.99745 19.0345 4.00005 18.6618V9.14176C4.00025 8.76968 4.10424 8.40503 4.30033 8.08881C4.49642 7.77259 4.77684 7.51734 5.11005 7.35176L13.11 3.35176C13.3866 3.21434 13.6912 3.14282 14 3.14282C14.3089 3.14282 14.6135 3.21434 14.89 3.35176Z" stroke="#151522" stroke-linecap="round" stroke-linejoin="round"/>
</svg>
