<svg width="32" height="31" viewBox="0 0 32 31" fill="none" xmlns="http://www.w3.org/2000/svg">
<path d="M12.3499 7.22155L12.3541 7.22324C12.4416 6.85027 12.7599 6.5758 13.1581 6.5758H24.5004C24.5147 6.5758 24.5291 6.56991 24.5434 6.57075C24.3017 2.54722 20.9265 0.682373 17.9486 0.682373H6.6063C6.20723 0.682373 5.88899 0.964416 5.80227 1.33654L5.79806 1.33486L0.840005 24.0986L0.85095 24.0995C0.839163 24.1534 0.818115 24.2047 0.818115 24.2628C0.818115 24.7284 1.19445 25.0972 1.66003 25.0972H8.45516L12.3499 7.22155Z" fill="#1565C0"/>
<path d="M24.5434 6.5708C24.588 7.30832 24.5392 8.11067 24.3506 8.99721C23.2721 14.0445 19.3732 16.6713 14.5549 16.6713C14.5549 16.6713 11.6334 16.6713 10.9237 16.6713C10.485 16.6713 10.2779 16.9289 10.1828 17.1259L8.71786 23.9025L8.46107 25.1056H8.45602L7.39268 29.9854L7.40362 29.9862C7.39184 30.0401 7.37079 30.0915 7.37079 30.1496C7.37079 30.6151 7.74713 30.9915 8.21271 30.9915H14.3865L14.3974 30.9831C14.7948 30.9772 15.1105 30.6934 15.193 30.3196L15.2082 30.307L16.7338 23.2214C16.7338 23.2214 16.8398 22.5454 17.5504 22.5454C18.261 22.5454 21.068 22.5454 21.068 22.5454C25.8863 22.5454 29.8247 19.9304 30.9041 14.8822C32.1181 9.19085 28.0584 6.59185 24.5434 6.5708Z" fill="#039BE5"/>
<path d="M13.1581 6.5758C12.7591 6.5758 12.4408 6.85027 12.3541 7.22324L12.3499 7.22155L10.1819 17.1267C10.2771 16.9297 10.4842 16.6721 10.9228 16.6721C11.6334 16.6721 14.4884 16.6721 14.4884 16.6721C19.3067 16.6721 23.2712 14.0453 24.3497 8.998C24.5392 8.11146 24.5872 7.30911 24.5425 6.57159C24.5291 6.56991 24.5139 6.5758 24.5004 6.5758H13.1581Z" fill="#283593"/>
</svg>
