<svg width="28" height="29" viewBox="0 0 28 29" fill="none" xmlns="http://www.w3.org/2000/svg">
<path d="M14 17.6709C15.6569 17.6709 17 16.3278 17 14.6709C17 13.014 15.6569 11.6709 14 11.6709C12.3431 11.6709 11 13.014 11 14.6709C11 16.3278 12.3431 17.6709 14 17.6709Z" stroke="#999999" stroke-linecap="round" stroke-linejoin="round"/>
<path d="M21.4 17.6709C21.2669 17.9725 21.2272 18.3071 21.286 18.6315C21.3448 18.9559 21.4995 19.2552 21.73 19.4909L21.79 19.5509C21.976 19.7366 22.1235 19.9572 22.2241 20.2C22.3248 20.4428 22.3766 20.7031 22.3766 20.9659C22.3766 21.2287 22.3248 21.489 22.2241 21.7318C22.1235 21.9746 21.976 22.1952 21.79 22.3809C21.6043 22.5669 21.3837 22.7144 21.1409 22.815C20.8981 22.9157 20.6378 22.9675 20.375 22.9675C20.1122 22.9675 19.8519 22.9157 19.6091 22.815C19.3663 22.7144 19.1457 22.5669 18.96 22.3809L18.9 22.3209C18.6643 22.0904 18.365 21.9357 18.0406 21.8769C17.7162 21.8181 17.3816 21.8578 17.08 21.9909C16.7842 22.1177 16.532 22.3281 16.3543 22.5964C16.1766 22.8647 16.0813 23.1791 16.08 23.5009V23.6709C16.08 24.2013 15.8693 24.71 15.4942 25.0851C15.1191 25.4602 14.6104 25.6709 14.08 25.6709C13.5496 25.6709 13.0409 25.4602 12.6658 25.0851C12.2907 24.71 12.08 24.2013 12.08 23.6709V23.5809C12.0723 23.2499 11.9651 22.9289 11.7725 22.6596C11.5799 22.3903 11.3107 22.1852 11 22.0709C10.6984 21.9378 10.3638 21.8981 10.0394 21.9569C9.71502 22.0157 9.41568 22.1704 9.18 22.4009L9.12 22.4609C8.93425 22.6469 8.71368 22.7944 8.47088 22.895C8.22808 22.9957 7.96783 23.0475 7.705 23.0475C7.44217 23.0475 7.18192 22.9957 6.93912 22.895C6.69632 22.7944 6.47575 22.6469 6.29 22.4609C6.10405 22.2752 5.95653 22.0546 5.85588 21.8118C5.75523 21.569 5.70343 21.3087 5.70343 21.0459C5.70343 20.7831 5.75523 20.5228 5.85588 20.28C5.95653 20.0372 6.10405 19.8166 6.29 19.6309L6.35 19.5709C6.58054 19.3352 6.73519 19.0359 6.794 18.7115C6.85282 18.3871 6.81312 18.0525 6.68 17.7509C6.55324 17.4551 6.34276 17.2029 6.07447 17.0252C5.80618 16.8475 5.49179 16.7522 5.17 16.7509H5C4.46957 16.7509 3.96086 16.5402 3.58579 16.1651C3.21071 15.79 3 15.2813 3 14.7509C3 14.2205 3.21071 13.7118 3.58579 13.3367C3.96086 12.9616 4.46957 12.7509 5 12.7509H5.09C5.42099 12.7432 5.742 12.636 6.0113 12.4434C6.28059 12.2508 6.48572 11.9816 6.6 11.6709C6.73312 11.3693 6.77282 11.0347 6.714 10.7103C6.65519 10.3859 6.50054 10.0866 6.27 9.8509L6.21 9.7909C6.02405 9.60515 5.87653 9.38458 5.77588 9.14178C5.67523 8.89898 5.62343 8.63873 5.62343 8.3759C5.62343 8.11307 5.67523 7.85281 5.77588 7.61002C5.87653 7.36722 6.02405 7.14664 6.21 6.9609C6.39575 6.77495 6.61632 6.62743 6.85912 6.52678C7.10192 6.42613 7.36217 6.37433 7.625 6.37433C7.88783 6.37433 8.14808 6.42613 8.39088 6.52678C8.63368 6.62743 8.85425 6.77495 9.04 6.9609L9.1 7.0209C9.33568 7.25144 9.63502 7.40608 9.95941 7.4649C10.2838 7.52372 10.6184 7.48401 10.92 7.3509H11C11.2958 7.22414 11.548 7.01365 11.7257 6.74536C11.9034 6.47707 11.9987 6.16269 12 5.8409V5.6709C12 5.14047 12.2107 4.63176 12.5858 4.25668C12.9609 3.88161 13.4696 3.6709 14 3.6709C14.5304 3.6709 15.0391 3.88161 15.4142 4.25668C15.7893 4.63176 16 5.14047 16 5.6709V5.7609C16.0013 6.08268 16.0966 6.39707 16.2743 6.66536C16.452 6.93365 16.7042 7.14414 17 7.2709C17.3016 7.40401 17.6362 7.44372 17.9606 7.3849C18.285 7.32608 18.5843 7.17144 18.82 6.9409L18.88 6.8809C19.0657 6.69495 19.2863 6.54743 19.5291 6.44678C19.7719 6.34613 20.0322 6.29433 20.295 6.29433C20.5578 6.29433 20.8181 6.34613 21.0609 6.44678C21.3037 6.54743 21.5243 6.69495 21.71 6.8809C21.896 7.06664 22.0435 7.28722 22.1441 7.53002C22.2448 7.77281 22.2966 8.03307 22.2966 8.2959C22.2966 8.55873 22.2448 8.81898 22.1441 9.06178C22.0435 9.30458 21.896 9.52515 21.71 9.7109L21.65 9.7709C21.4195 10.0066 21.2648 10.3059 21.206 10.6303C21.1472 10.9547 21.1869 11.2893 21.32 11.5909V11.6709C21.4468 11.9667 21.6572 12.2189 21.9255 12.3966C22.1938 12.5743 22.5082 12.6696 22.83 12.6709H23C23.5304 12.6709 24.0391 12.8816 24.4142 13.2567C24.7893 13.6318 25 14.1405 25 14.6709C25 15.2013 24.7893 15.71 24.4142 16.0851C24.0391 16.4602 23.5304 16.6709 23 16.6709H22.91C22.5882 16.6722 22.2738 16.7675 22.0055 16.9452C21.7372 17.1229 21.5268 17.3751 21.4 17.6709Z" stroke="#999999" stroke-linecap="round" stroke-linejoin="round"/>
</svg>
