<svg width="28" height="29" viewBox="0 0 28 29" fill="none" xmlns="http://www.w3.org/2000/svg">
<path d="M5 8.14282L8 4.14282H20L23 8.14282M5 8.14282V22.1428C5 22.6733 5.21071 23.182 5.58579 23.557C5.96086 23.9321 6.46957 24.1428 7 24.1428H21C21.5304 24.1428 22.0391 23.9321 22.4142 23.557C22.7893 23.182 23 22.6733 23 22.1428V8.14282M5 8.14282H23M18 12.1428C18 13.2037 17.5786 14.2211 16.8284 14.9712C16.0783 15.7214 15.0609 16.1428 14 16.1428C12.9391 16.1428 11.9217 15.7214 11.1716 14.9712C10.4214 14.2211 10 13.2037 10 12.1428" stroke="#151522" stroke-linecap="round" stroke-linejoin="round"/>
</svg>
