<svg width="29" height="29" viewBox="0 0 29 29" fill="none" xmlns="http://www.w3.org/2000/svg">
<mask id="path-1-inside-1" fill="white">
<path d="M19.9839 4.60773H9.98389C8.87932 4.60773 7.98389 5.50316 7.98389 6.60773V22.6077C7.98389 23.7123 8.87932 24.6077 9.98389 24.6077H19.9839C21.0885 24.6077 21.9839 23.7123 21.9839 22.6077V6.60773C21.9839 5.50316 21.0885 4.60773 19.9839 4.60773Z"/>
<path d="M15.9839 20.6077C15.9839 21.16 15.5362 21.6077 14.9839 21.6077C14.4316 21.6077 13.9839 21.16 13.9839 20.6077C13.9839 20.0554 14.4316 19.6077 14.9839 19.6077C15.5362 19.6077 15.9839 20.0554 15.9839 20.6077Z"/>
</mask>
<path d="M9.98389 5.60773H19.9839V3.60773H9.98389V5.60773ZM19.9839 5.60773C20.5362 5.60773 20.9839 6.05544 20.9839 6.60773H22.9839C22.9839 4.95087 21.6407 3.60773 19.9839 3.60773V5.60773ZM20.9839 6.60773V22.6077H22.9839V6.60773H20.9839ZM20.9839 22.6077C20.9839 23.16 20.5362 23.6077 19.9839 23.6077V25.6077C21.6407 25.6077 22.9839 24.2646 22.9839 22.6077H20.9839ZM19.9839 23.6077H9.98389V25.6077H19.9839V23.6077ZM9.98389 23.6077C9.4316 23.6077 8.98389 23.16 8.98389 22.6077H6.98389C6.98389 24.2646 8.32703 25.6077 9.98389 25.6077V23.6077ZM8.98389 22.6077V6.60773H6.98389V22.6077H8.98389ZM8.98389 6.60773C8.98389 6.05544 9.4316 5.60773 9.98389 5.60773V3.60773C8.32703 3.60773 6.98389 4.95087 6.98389 6.60773H8.98389ZM14.9839 20.6077V22.6077C16.0885 22.6077 16.9839 21.7123 16.9839 20.6077H14.9839ZM14.9839 20.6077H12.9839C12.9839 21.7123 13.8793 22.6077 14.9839 22.6077V20.6077ZM14.9839 20.6077V18.6077C13.8793 18.6077 12.9839 19.5032 12.9839 20.6077H14.9839ZM14.9839 20.6077H16.9839C16.9839 19.5032 16.0885 18.6077 14.9839 18.6077V20.6077Z" fill="#999999" mask="url(#path-1-inside-1)"/>
</svg>
