<svg width="28" height="29" viewBox="0 0 28 29" fill="none" xmlns="http://www.w3.org/2000/svg">
<path d="M18 18.2109V5.21094H3V18.2109H18ZM18 18.2109H25V13.2109L22 10.2109H18V18.2109ZM10 20.7109C10 22.0916 8.88071 23.2109 7.5 23.2109C6.11929 23.2109 5 22.0916 5 20.7109C5 19.3302 6.11929 18.2109 7.5 18.2109C8.88071 18.2109 10 19.3302 10 20.7109ZM23 20.7109C23 22.0916 21.8807 23.2109 20.5 23.2109C19.1193 23.2109 18 22.0916 18 20.7109C18 19.3302 19.1193 18.2109 20.5 18.2109C21.8807 18.2109 23 19.3302 23 20.7109Z" stroke="#999999" stroke-linecap="round" stroke-linejoin="round"/>
</svg>
