<svg width="42" height="14" viewBox="0 0 42 14" fill="none" xmlns="http://www.w3.org/2000/svg">
<path d="M11.8408 0.278809L8.71901 9.58938C8.71901 9.58938 7.92609 5.65093 7.84763 5.1564C6.0704 1.10145 3.44794 1.32732 3.44794 1.32732L6.53878 13.3554V13.3531H10.2965L15.4927 0.278809H11.8408Z" fill="#1565C0"/>
<path d="M14.817 13.3554H18.23L20.2938 0.278809H16.838L14.817 13.3554Z" fill="#1565C0"/>
<path d="M38.9719 0.278809H35.3806L29.7814 13.3554H33.1718L33.8708 11.4879H38.1457L38.5094 13.3554H41.6157L38.9719 0.278809ZM34.8171 8.99023L36.6751 4.04845L37.6476 8.99023H34.8171Z" fill="#1565C0"/>
<path d="M25.1355 4.09002C25.1355 3.36962 25.7275 2.83348 27.4251 2.83348C28.5283 2.83348 29.792 3.63472 29.792 3.63472L30.3459 0.889812C30.3459 0.889812 28.7316 0.277589 27.1469 0.277589C23.558 0.277589 21.707 1.99419 21.707 4.16729C21.707 8.09742 26.4372 7.5589 26.4372 9.57746C26.4372 9.92339 26.1626 10.7234 24.1928 10.7234C22.217 10.7234 20.9129 9.99948 20.9129 9.99948L20.3245 12.6338C20.3245 12.6338 21.5881 13.3542 24.0299 13.3542C26.4776 13.3542 29.8728 11.5235 29.8728 8.89391C29.8728 5.73055 25.1355 5.5023 25.1355 4.09002Z" fill="#1565C0"/>
<path d="M8.30581 7.34613L7.15745 1.70178C7.15745 1.70178 6.63795 0.478515 5.28749 0.478515C3.93703 0.478515 0.00927711 0.478515 0.00927711 0.478515C0.00927711 0.478515 6.73899 2.46616 8.30581 7.34613Z" fill="#FFC107"/>
</svg>
