<?xml version="1.0" encoding="utf-8"?>
<!-- Generator: Adobe Illustrator 24.1.1, SVG Export Plug-In . SVG Version: 6.00 Build 0)  -->
<svg version="1.1" id="Layer_1" xmlns="http://www.w3.org/2000/svg" xmlns:xlink="http://www.w3.org/1999/xlink" x="0px" y="0px"
	 viewBox="0 0 28 28" enable-background="new 0 0 28 28" xml:space="preserve">
<g>
	<path fill="#576122" d="M21.79,11.12c0,0-0.78,1.14-1.83,1.13l0,0v0.04c0.89,0.22,1.83,0.04,2.59-0.49
		C22.21,11.68,21.94,11.44,21.79,11.12z"/>
	<path fill="#6DA427" d="M23.94,10c-0.81,1.59-1.8,2.15-2.59,2.31c-0.46,0.06-0.93,0.04-1.38-0.05v0.04c0,0,0.97,0.18,1.39,0.23l0,0
		c3.76,0.53,4.91-1.4,4.91-1.4L23.94,10z"/>
	<path fill="#FA000F" d="M24.83,10.16l-0.19-0.09c-0.06-0.03-0.13-0.06-0.19-0.09c-0.05-0.01-0.08-0.06-0.07-0.11
		c0-0.24,0-0.48,0-0.72c0-0.08-0.02-0.11-0.1-0.11c-0.87,0-1.75,0-2.62,0c-0.07,0-0.09,0.03-0.09,0.09c0,1,0,2,0,3v1.73
		c0,0.11,0,0.11,0.11,0.11h2.59c0.1,0,0.1,0,0.1-0.1c0-0.39,0-0.79,0-1.18c-0.01-0.06,0.03-0.12,0.09-0.13
		c0.1-0.03,0.2-0.07,0.3-0.11c0.05-0.02,0.07,0,0.07,0.04v0.17c0,0.74,0,1.47,0,2.21c0,0.38-0.31,0.69-0.7,0.69
		c-0.78-0.01-1.56,0-2.35,0c-0.37,0.01-0.68-0.29-0.69-0.66c0-0.01,0-0.02,0-0.02c0-0.75,0-1.49,0-2.24c0-1.18,0-2.35,0-3.53
		c-0.01-0.37,0.29-0.68,0.66-0.69c0.01,0,0.01,0,0.02,0h2.35c0.37-0.01,0.68,0.28,0.7,0.66c0,0.02,0,0.03,0,0.05v0.91
		C24.84,10.08,24.84,10.11,24.83,10.16z M22.69,14.68L22.69,14.68c0,0.07,0,0.14,0,0.21c-0.01,0.04,0.02,0.08,0.06,0.09
		c0.01,0,0.02,0,0.03,0h0.42c0.04,0,0.08-0.02,0.08-0.06c0-0.01,0-0.01,0-0.02v-0.42c0.01-0.04-0.02-0.08-0.07-0.09
		c-0.01,0-0.01,0-0.02,0c-0.14,0-0.28,0-0.43,0c-0.04,0-0.08,0.03-0.08,0.07c0,0.01,0,0.01,0,0.02
		C22.69,14.55,22.69,14.62,22.69,14.68L22.69,14.68z M23.69,14.68c0,0.18-0.01,0.16,0.16,0.16c0.17,0,0.16,0.02,0.16-0.16
		c0-0.16,0.02-0.16-0.16-0.16c-0.18,0-0.16,0.01-0.16,0.17V14.68z M21.97,14.68c0,0.02,0,0.04,0,0.05c-0.02,0.08,0.03,0.11,0.1,0.1
		c0.05,0,0.1,0,0.15,0s0.07-0.02,0.07-0.07s0-0.11,0-0.16s-0.02-0.11-0.1-0.1h-0.05c-0.16,0.03-0.16-0.01-0.16,0.19V14.68z"/>
	<path fill="#FA000F" d="M25.6,17.5c0.11-0.05,0.23-0.1,0.35-0.13c0.16-0.04,0.33-0.03,0.48,0.02c0.22,0.08,0.38,0.27,0.42,0.51
		c0.02,0.08,0.03,0.17,0.04,0.26c0,0.42,0,0.83,0,1.25c0,0.07-0.03,0.1-0.1,0.1c-0.12,0-0.23,0-0.35,0s-0.11,0-0.11-0.1
		c0-0.36,0-0.72,0-1.07c0-0.1-0.02-0.2-0.05-0.3c-0.05-0.16-0.22-0.25-0.37-0.2c0,0-0.01,0-0.01,0c-0.04,0.01-0.08,0.03-0.11,0.04
		c-0.14,0.04-0.23,0.18-0.21,0.32c0.02,0.39,0,0.78,0,1.18c0,0.13,0,0.13-0.12,0.13c-0.12,0-0.23,0-0.34,0
		c-0.06,0-0.08-0.03-0.08-0.09c0-0.91,0-1.82,0-2.72c0-0.07,0.03-0.09,0.1-0.09c0.12,0,0.24,0,0.36,0c0.07,0,0.09,0.03,0.09,0.09
		c0,0.24,0,0.47,0,0.71C25.59,17.44,25.6,17.47,25.6,17.5z"/>
	<path fill="#FA000F" d="M21.42,17.99c-0.06-0.12-0.11-0.23-0.16-0.34c0-0.03,0.01-0.06,0.04-0.08c0.3-0.2,0.67-0.27,1.02-0.17
		c0.29,0.08,0.49,0.35,0.48,0.66c0,0.46,0,0.92,0,1.38c0,0.05-0.02,0.07-0.07,0.07h-0.28c-0.14,0-0.14,0-0.18-0.13l-0.1,0.07
		c-0.34,0.21-0.79,0.11-1-0.23c-0.13-0.24-0.1-0.54,0.08-0.75c0.2-0.18,0.46-0.28,0.73-0.3c0.07-0.01,0.15-0.02,0.22-0.02
		c0.04,0,0.06-0.02,0.05-0.07c0-0.17-0.12-0.28-0.32-0.28c-0.17,0.01-0.33,0.06-0.47,0.16L21.42,17.99z M22.26,18.74L22.26,18.74
		c0-0.05,0-0.11,0-0.16c0-0.02-0.03-0.05-0.04-0.05c-0.16,0-0.32,0.03-0.47,0.1c-0.09,0.06-0.14,0.17-0.11,0.28
		c0.02,0.1,0.11,0.17,0.21,0.16c0.09,0,0.19-0.02,0.27-0.05c0.09-0.03,0.16-0.09,0.14-0.21C22.26,18.79,22.26,18.77,22.26,18.74
		L22.26,18.74z"/>
	<path fill="#FA000F" d="M24.57,17.97l-0.16-0.09c-0.18-0.1-0.39-0.13-0.59-0.1c-0.09,0.01-0.16,0.08-0.16,0.16
		c-0.01,0.09,0.01,0.14,0.12,0.18c0.17,0.06,0.35,0.1,0.53,0.15c0.34,0.07,0.55,0.4,0.48,0.73c-0.01,0.06-0.03,0.11-0.06,0.16
		c-0.09,0.17-0.25,0.3-0.44,0.33c-0.37,0.09-0.77,0.04-1.1-0.14h-0.01c-0.13-0.07-0.14-0.09-0.07-0.23l0.13-0.25c0,0,0.01,0,0.01,0
		c0.12,0.07,0.24,0.13,0.37,0.18c0.16,0.07,0.34,0.08,0.51,0.04c0.09-0.01,0.15-0.08,0.16-0.16c0.01-0.09-0.04-0.17-0.13-0.19
		c-0.15-0.05-0.3-0.09-0.46-0.13c-0.14-0.03-0.26-0.09-0.37-0.18c-0.19-0.19-0.24-0.48-0.12-0.72c0.1-0.19,0.29-0.31,0.5-0.33
		c0.33-0.06,0.66-0.01,0.96,0.14c0.11,0.05,0.11,0.06,0.06,0.16S24.62,17.87,24.57,17.97z"/>
	<path fill="#FA000F" d="M19.13,18.46c0-0.24,0.07-0.48,0.18-0.69c0.27-0.41,0.8-0.55,1.24-0.32c0.14,0.07,0.25,0.19,0.33,0.32
		c0.02,0.04,0.02,0.07-0.02,0.1l-0.31,0.21c-0.03,0.02-0.05,0.02-0.08-0.02c-0.04-0.06-0.08-0.11-0.13-0.16
		c-0.13-0.14-0.35-0.14-0.48-0.01c0,0,0,0,0,0c-0.09,0.09-0.15,0.2-0.16,0.33c-0.03,0.18-0.02,0.37,0.04,0.54
		c0.06,0.18,0.23,0.29,0.42,0.28c0.19,0.01,0.37-0.04,0.52-0.16c0.03-0.03,0.06-0.02,0.07,0.02c0.04,0.11,0.08,0.23,0.12,0.34
		c0,0.03-0.01,0.07-0.04,0.09c-0.16,0.11-0.34,0.17-0.53,0.18c-0.22,0.04-0.46,0-0.66-0.1c-0.24-0.13-0.41-0.36-0.46-0.62
		C19.16,18.7,19.15,18.58,19.13,18.46z"/>
	<path fill="#FA000F" d="M16.47,13.99v5.44c0,0.09-0.05,0.13-0.14,0.09c-0.02-0.02-0.04-0.05-0.04-0.07c0-0.16,0-0.32,0-0.48
		c0-3.46,0-6.92,0-10.38c0-0.02,0-0.04,0-0.06c0-0.06,0.03-0.08,0.09-0.08c0.06,0,0.08,0.02,0.08,0.08
		C16.47,10.36,16.47,12.17,16.47,13.99z"/>
	<path fill="#FA000F" d="M6.67,8.47c-3.04-0.03-5.53,2.42-5.56,5.47s2.42,5.53,5.47,5.56c3.04,0.03,5.53-2.42,5.56-5.47
		c0-0.04,0-0.08,0-0.12C12.12,10.91,9.68,8.48,6.67,8.47z M9.7,14.9c-0.09,0.37-0.26,0.73-0.48,1.04c-0.32,0.44-0.75,0.78-1.25,0.99
		c-0.34,0.14-0.7,0.22-1.07,0.22c-1.37,0.01-2.59-0.86-3.01-2.16c-0.23-0.72-0.26-1.48-0.08-2.21c0.23-0.98,0.77-1.85,1.53-2.5
		c0.65-0.57,1.45-0.96,2.3-1.12c0.04-0.01,0.08-0.02,0.12-0.02C7.8,9.12,8.54,9.02,8.89,9.09c0,0-0.24,0.11-0.48,0.26
		C8.32,9.41,8.23,9.47,8.15,9.53l0,0l0,0c-0.49,0.38-0.8,0.96-0.85,1.58c-0.02,0.21,0,0.19,0.17,0.23c0.6,0.13,1.15,0.44,1.58,0.88
		C9.37,12.57,9.59,13,9.7,13.46C9.82,13.94,9.81,14.43,9.7,14.9z"/>
</g>
</svg>
